<svg xmlns="http://www.w3.org/2000/svg" width="900" height="600" viewBox="0 0 900 600">
  <rect width="900" height="600" fill="#ffffff" rx="4"/>
  <!-- Title -->
  <text x="450" y="50" font-size="20" font-weight="bold" fill="#1e293b" text-anchor="middle" font-family="Arial, sans-serif">Chapter 12: Graph Traversals</text>
  <rect x="430" y="60" width="40" height="3" rx="2" fill="#2563eb"/>
  <!-- Comparison table -->
    <rect x="20" y="90" width="160" height="44" rx="8" fill="#2563eb"/>
    <text x="100" y="117" font-size="13" font-weight="bold" fill="#fff" text-anchor="middle" font-family="Arial, sans-serif">Topic</text>
  <rect x="180" y="90" width="350" height="44" rx="0" fill="#2563eb"/>
    <text x="355" y="117" font-size="13" font-weight="bold" fill="#fff" text-anchor="middle" font-family="Arial, sans-serif">Key Insight</text>
  <rect x="530" y="90" width="350" height="44" rx="0 8 0" fill="#2563eb"/>
    <text x="705" y="117" font-size="13" font-weight="bold" fill="#fff" text-anchor="middle" font-family="Arial, sans-serif">Practical Takeaway</text>
  <rect x="20" y="134" width="160" height="36" fill="#f8fafc" stroke="#e2e8f0" stroke-width="0.5"/>
      <text x="28" y="156" font-size="11" font-weight="bold" fill="#1e293b" font-family="Arial, sans-serif">BFS</text>
  <rect x="180" y="134" width="350" height="36" fill="#f8fafc" stroke="#e2e8f0" stroke-width="0.5"/>
      <text x="188" y="156" font-size="10" font-weight="normal" fill="#475569" font-family="Arial, sans-serif">Level-order traversal using a queue</text>
  <rect x="530" y="134" width="350" height="36" fill="#f8fafc" stroke="#e2e8f0" stroke-width="0.5"/>
      <text x="538" y="156" font-size="10" font-weight="normal" fill="#475569" font-family="Arial, sans-serif">Shortest path in unweighted graphs</text>
  <rect x="20" y="170" width="160" height="36" fill="#ffffff" stroke="#e2e8f0" stroke-width="0.5"/>
      <text x="28" y="192" font-size="11" font-weight="bold" fill="#1e293b" font-family="Arial, sans-serif">DFS Recursive</text>
  <rect x="180" y="170" width="350" height="36" fill="#ffffff" stroke="#e2e8f0" stroke-width="0.5"/>
      <text x="188" y="192" font-size="10" font-weight="normal" fill="#475569" font-family="Arial, sans-serif">Depth-first via call stack</text>
  <rect x="530" y="170" width="350" height="36" fill="#ffffff" stroke="#e2e8f0" stroke-width="0.5"/>
      <text x="538" y="192" font-size="10" font-weight="normal" fill="#475569" font-family="Arial, sans-serif">Simplest implementation for...</text>
  <rect x="20" y="206" width="160" height="36" fill="#f8fafc" stroke="#e2e8f0" stroke-width="0.5"/>
      <text x="28" y="228" font-size="11" font-weight="bold" fill="#1e293b" font-family="Arial, sans-serif">DFS Iterative</text>
  <rect x="180" y="206" width="350" height="36" fill="#f8fafc" stroke="#e2e8f0" stroke-width="0.5"/>
      <text x="188" y="228" font-size="10" font-weight="normal" fill="#475569" font-family="Arial, sans-serif">Explicit stack avoids recursion...</text>
  <rect x="530" y="206" width="350" height="36" fill="#f8fafc" stroke="#e2e8f0" stroke-width="0.5"/>
      <text x="538" y="228" font-size="10" font-weight="normal" fill="#475569" font-family="Arial, sans-serif">Production-safe for large graphs</text>
  <rect x="20" y="242" width="160" height="36" fill="#ffffff" stroke="#e2e8f0" stroke-width="0.5"/>
      <text x="28" y="264" font-size="11" font-weight="bold" fill="#1e293b" font-family="Arial, sans-serif">Topological sort</text>
  <rect x="180" y="242" width="350" height="36" fill="#ffffff" stroke="#e2e8f0" stroke-width="0.5"/>
      <text x="188" y="264" font-size="10" font-weight="normal" fill="#475569" font-family="Arial, sans-serif">Linear ordering of DAG vertices</text>
  <rect x="530" y="242" width="350" height="36" fill="#ffffff" stroke="#e2e8f0" stroke-width="0.5"/>
      <text x="538" y="264" font-size="10" font-weight="normal" fill="#475569" font-family="Arial, sans-serif">Dependency resolution, build...</text>
  <rect x="20" y="278" width="160" height="36" fill="#f8fafc" stroke="#e2e8f0" stroke-width="0.5"/>
      <text x="28" y="300" font-size="11" font-weight="bold" fill="#1e293b" font-family="Arial, sans-serif">Cycle detection</text>
  <rect x="180" y="278" width="350" height="36" fill="#f8fafc" stroke="#e2e8f0" stroke-width="0.5"/>
      <text x="188" y="300" font-size="10" font-weight="normal" fill="#475569" font-family="Arial, sans-serif">Back edge in directed, visited...</text>
  <rect x="530" y="278" width="350" height="36" fill="#f8fafc" stroke="#e2e8f0" stroke-width="0.5"/>
      <text x="538" y="300" font-size="10" font-weight="normal" fill="#475569" font-family="Arial, sans-serif">Deadlock detection, invalid graph...</text>
  <rect x="20" y="314" width="160" height="36" fill="#ffffff" stroke="#e2e8f0" stroke-width="0.5"/>
      <text x="28" y="336" font-size="11" font-weight="bold" fill="#1e293b" font-family="Arial, sans-serif">Connected components</text>
  <rect x="180" y="314" width="350" height="36" fill="#ffffff" stroke="#e2e8f0" stroke-width="0.5"/>
      <text x="188" y="336" font-size="10" font-weight="normal" fill="#475569" font-family="Arial, sans-serif">Vertices reachable within same...</text>
  <rect x="530" y="314" width="350" height="36" fill="#ffffff" stroke="#e2e8f0" stroke-width="0.5"/>
      <text x="538" y="336" font-size="10" font-weight="normal" fill="#475569" font-family="Arial, sans-serif">Cluster analysis, graph...</text>
  <rect x="20" y="350" width="160" height="36" fill="#f8fafc" stroke="#e2e8f0" stroke-width="0.5"/>
      <text x="28" y="372" font-size="11" font-weight="bold" fill="#1e293b" font-family="Arial, sans-serif">Bipartite checking</text>
  <rect x="180" y="350" width="350" height="36" fill="#f8fafc" stroke="#e2e8f0" stroke-width="0.5"/>
      <text x="188" y="372" font-size="10" font-weight="normal" fill="#475569" font-family="Arial, sans-serif">Two-coloring with BFS</text>
  <rect x="530" y="350" width="350" height="36" fill="#f8fafc" stroke="#e2e8f0" stroke-width="0.5"/>
      <text x="538" y="372" font-size="10" font-weight="normal" fill="#475569" font-family="Arial, sans-serif">Matching problems, resource...</text>
  <rect x="20" y="386" width="160" height="36" fill="#ffffff" stroke="#e2e8f0" stroke-width="0.5"/>
      <text x="28" y="408" font-size="11" font-weight="bold" fill="#1e293b" font-family="Arial, sans-serif">Strongly connected components</text>
  <rect x="180" y="386" width="350" height="36" fill="#ffffff" stroke="#e2e8f0" stroke-width="0.5"/>
      <text x="188" y="408" font-size="10" font-weight="normal" fill="#475569" font-family="Arial, sans-serif">Mutual reachability in directed...</text>
  <rect x="530" y="386" width="350" height="36" fill="#ffffff" stroke="#e2e8f0" stroke-width="0.5"/>
      <text x="538" y="408" font-size="10" font-weight="normal" fill="#475569" font-family="Arial, sans-serif">Recommendation systems, web...</text>
</svg>