<svg xmlns="http://www.w3.org/2000/svg" width="900" height="600" viewBox="0 0 900 600">
  <rect width="900" height="600" fill="#ffffff" rx="4"/>
  <!-- Title -->
  <text x="450" y="50" font-size="20" font-weight="bold" fill="#1e293b" text-anchor="middle" font-family="Arial, sans-serif">अध्याय ७: ध्वनि और नाद — ओशो की ध्वनि तकनीकें</text>
  <rect x="430" y="60" width="40" height="3" rx="2" fill="#2563eb"/>
  <!-- Comparison table -->
    <rect x="20" y="90" width="160" height="44" rx="8" fill="#2563eb"/>
    <text x="100" y="117" font-size="13" font-weight="bold" fill="#fff" text-anchor="middle" font-family="Arial, sans-serif">पहलू</text>
  <rect x="180" y="90" width="350" height="44" rx="0" fill="#2563eb"/>
    <text x="355" y="117" font-size="13" font-weight="bold" fill="#fff" text-anchor="middle" font-family="Arial, sans-serif">मंत्र जप (पारंपरिक)</text>
  <rect x="530" y="90" width="350" height="44" rx="0 8 0" fill="#2563eb"/>
    <text x="705" y="117" font-size="13" font-weight="bold" fill="#fff" text-anchor="middle" font-family="Arial, sans-serif">मंत्र जागरूकता (ओशो)</text>
  <rect x="20" y="134" width="160" height="36" fill="#f8fafc" stroke="#e2e8f0" stroke-width="0.5"/>
      <text x="28" y="156" font-size="11" font-weight="bold" fill="#1e293b" font-family="Arial, sans-serif">उद्देश्य</text>
  <rect x="180" y="134" width="350" height="36" fill="#f8fafc" stroke="#e2e8f0" stroke-width="0.5"/>
      <text x="188" y="156" font-size="10" font-weight="normal" fill="#475569" font-family="Arial, sans-serif">एकाग्रता और पुण्य</text>
  <rect x="530" y="134" width="350" height="36" fill="#f8fafc" stroke="#e2e8f0" stroke-width="0.5"/>
      <text x="538" y="156" font-size="10" font-weight="normal" fill="#475569" font-family="Arial, sans-serif">जागरूकता और चेतना विस्तार</text>
  <rect x="20" y="170" width="160" height="36" fill="#ffffff" stroke="#e2e8f0" stroke-width="0.5"/>
      <text x="28" y="192" font-size="11" font-weight="bold" fill="#1e293b" font-family="Arial, sans-serif">विधि</text>
  <rect x="180" y="170" width="350" height="36" fill="#ffffff" stroke="#e2e8f0" stroke-width="0.5"/>
      <text x="188" y="192" font-size="10" font-weight="normal" fill="#475569" font-family="Arial, sans-serif">दोहराना, गिनना</text>
  <rect x="530" y="170" width="350" height="36" fill="#ffffff" stroke="#e2e8f0" stroke-width="0.5"/>
      <text x="538" y="192" font-size="10" font-weight="normal" fill="#475569" font-family="Arial, sans-serif">सुनना, महसूस करना</text>
  <rect x="20" y="206" width="160" height="36" fill="#f8fafc" stroke="#e2e8f0" stroke-width="0.5"/>
      <text x="28" y="228" font-size="11" font-weight="bold" fill="#1e293b" font-family="Arial, sans-serif">मन की स्थिति</text>
  <rect x="180" y="206" width="350" height="36" fill="#f8fafc" stroke="#e2e8f0" stroke-width="0.5"/>
      <text x="188" y="228" font-size="10" font-weight="normal" fill="#475569" font-family="Arial, sans-serif">निद्रालु (लयबद्ध दोहराव से)</text>
  <rect x="530" y="206" width="350" height="36" fill="#f8fafc" stroke="#e2e8f0" stroke-width="0.5"/>
      <text x="538" y="228" font-size="10" font-weight="normal" fill="#475569" font-family="Arial, sans-serif">जाग्रत, सतर्क</text>
  <rect x="20" y="242" width="160" height="36" fill="#ffffff" stroke="#e2e8f0" stroke-width="0.5"/>
      <text x="28" y="264" font-size="11" font-weight="bold" fill="#1e293b" font-family="Arial, sans-serif">लक्ष्य</text>
  <rect x="180" y="242" width="350" height="36" fill="#ffffff" stroke="#e2e8f0" stroke-width="0.5"/>
      <text x="188" y="264" font-size="10" font-weight="normal" fill="#475569" font-family="Arial, sans-serif">मंत्र में खो जाना</text>
  <rect x="530" y="242" width="350" height="36" fill="#ffffff" stroke="#e2e8f0" stroke-width="0.5"/>
      <text x="538" y="264" font-size="10" font-weight="normal" fill="#475569" font-family="Arial, sans-serif">मंत्र के प्रति जागरूक रहना</text>
  <rect x="20" y="278" width="160" height="36" fill="#f8fafc" stroke="#e2e8f0" stroke-width="0.5"/>
      <text x="28" y="300" font-size="11" font-weight="bold" fill="#1e293b" font-family="Arial, sans-serif">परिणाम</text>
  <rect x="180" y="278" width="350" height="36" fill="#f8fafc" stroke="#e2e8f0" stroke-width="0.5"/>
      <text x="188" y="300" font-size="10" font-weight="normal" fill="#475569" font-family="Arial, sans-serif">शांति, लेकिन नींद</text>
  <rect x="530" y="278" width="350" height="36" fill="#f8fafc" stroke="#e2e8f0" stroke-width="0.5"/>
      <text x="538" y="300" font-size="10" font-weight="normal" fill="#475569" font-family="Arial, sans-serif">जागरण, लेकिन शांति</text>
</svg>