<svg xmlns="http://www.w3.org/2000/svg" width="800" height="600" viewBox="0 0 800 600">
<defs>
    <linearGradient id="gBlue" x1="0" y1="0" x2="1" y2="1">
      <stop offset="0%" stop-color="#2563eb"/>
      <stop offset="100%" stop-color="#60a5fa"/>
    </linearGradient>
    <linearGradient id="gGreen" x1="0" y1="0" x2="1" y2="1">
      <stop offset="0%" stop-color="#059669"/>
      <stop offset="100%" stop-color="#34d399"/>
    </linearGradient>
    <linearGradient id="gOrange" x1="0" y1="0" x2="1" y2="1">
      <stop offset="0%" stop-color="#d97706"/>
      <stop offset="100%" stop-color="#fbbf24"/>
    </linearGradient>
    <linearGradient id="gPurple" x1="0" y1="0" x2="1" y2="1">
      <stop offset="0%" stop-color="#7c3aed"/>
      <stop offset="100%" stop-color="#a78bfa"/>
    </linearGradient>
    <linearGradient id="gBg" x1="0" y1="0" x2="0" y2="1">
      <stop offset="0%" stop-color="#ffffff"/>
      <stop offset="100%" stop-color="#f8fafc"/>
    </linearGradient>
    <filter id="shadowSm" x="-5%" y="-5%" width="115%" height="115%">
      <feDropShadow dx="0" dy="1" stdDeviation="2" flood-opacity="0.08"/>
    </filter>
    <filter id="shadowMd" x="-8%" y="-8%" width="120%" height="120%">
      <feDropShadow dx="0" dy="2" stdDeviation="4" flood-opacity="0.12"/>
    </filter>
    <filter id="shadowLg" x="-10%" y="-10%" width="125%" height="125%">
      <feDropShadow dx="0" dy="4" stdDeviation="8" flood-opacity="0.15"/>
    </filter>
    <marker id="arrowBlue" viewBox="0 0 10 10" refX="8" refY="5" markerWidth="6" markerHeight="6" orient="auto">
      <path d="M0,0 L10,5 L0,10 Z" fill="#2563eb"/>
    </marker>
    <marker id="arrowGray" viewBox="0 0 10 10" refX="8" refY="5" markerWidth="6" markerHeight="6" orient="auto">
      <path d="M0,0 L10,5 L0,10 Z" fill="#94a3b8"/>
    </marker>
    <pattern id="dotGrid" width="20" height="20" patternUnits="userSpaceOnUse">
      <circle cx="10" cy="10" r="0.8" fill="#e2e8f0"/>
    </pattern>
    <pattern id="lineGrid" width="30" height="30" patternUnits="userSpaceOnUse">
      <path d="M 30 0 L 0 0 0 30" fill="none" stroke="#f1f5f9" stroke-width="0.5"/>
    </pattern>
  </defs>
  <rect width="800" height="600" fill="url(#gBg)"/>
  <rect width="800" height="600" fill="url(#lineGrid)" opacity="0.35"/>
  <!-- Title -->
  <text x="400" y="40" font-size="18" font-weight="bold" fill="#1e293b" text-anchor="middle" font-family="Arial, sans-serif">Chapter 3: Singly Linked List</text>
  <rect x="375" y="50" width="50" height="3" rx="1.5" fill="#2563eb"/>
  <!-- Step 1: Data → the actual value stored (int, char, object, etc.). -->
    <rect x="252.5" y="100" width="130" height="80" rx="40" fill="url(#gBlue)" filter="url(#shadowMd)"/>
  <circle cx="317.5" cy="126" r="15" fill="#ffffff" opacity="0.25"/>
      <text x="317.5" y="131" font-size="14" font-weight="bold" fill="#ffffff" text-anchor="middle" font-family="Arial, sans-serif">1</text>
  <text x="317.5" y="160" font-size="11" font-weight="bold" fill="#ffffff" text-anchor="middle" font-family="Arial, sans-serif">Data → the actual...</text>
  <!-- Arrow 1 → 2 -->
    <line x1="386.5" y1="140" x2="413.5" y2="140" stroke="#2563eb" stroke-width="2" marker-end="url(#arrowBlue)"/>
  <!-- Description for step 1 -->
    <rect x="256.5" y="202" width="122" height="64" rx="6" fill="#ffffff" filter="url(#shadowSm)"/>
    <rect x="256.5" y="202" width="122" height="64" rx="6" fill="none" stroke="#e2e8f0" stroke-width="1"/>
    <line x1="266.5" y1="212" x2="368.5" y2="212" stroke="#2563eb" stroke-width="2" stroke-linecap="round" opacity="0.35"/>
  <text x="317.5" y="226" font-size="10" fill="#64748b" text-anchor="middle" font-family="Arial, sans-serif">Data → the actual value</text>
  <text x="317.5" y="242" font-size="10" fill="#64748b" text-anchor="middle" font-family="Arial, sans-serif">stored (int, char,</text>
  <text x="317.5" y="258" font-size="10" fill="#64748b" text-anchor="middle" font-family="Arial, sans-serif">object, etc.).</text>
  <rect x="417.5" y="100" width="130" height="80" rx="40" fill="url(#gGreen)" filter="url(#shadowMd)"/>
  <circle cx="482.5" cy="126" r="15" fill="#ffffff" opacity="0.25"/>
      <text x="482.5" y="131" font-size="14" font-weight="bold" fill="#ffffff" text-anchor="middle" font-family="Arial, sans-serif">2</text>
  <text x="482.5" y="160" font-size="11" font-weight="bold" fill="#ffffff" text-anchor="middle" font-family="Arial, sans-serif">Next → a...</text>
  <!-- Description for step 2 -->
    <rect x="421.5" y="202" width="122" height="96" rx="6" fill="#ffffff" filter="url(#shadowSm)"/>
    <rect x="421.5" y="202" width="122" height="96" rx="6" fill="none" stroke="#e2e8f0" stroke-width="1"/>
    <line x1="431.5" y1="212" x2="533.5" y2="212" stroke="#059669" stroke-width="2" stroke-linecap="round" opacity="0.35"/>
  <text x="482.5" y="226" font-size="10" fill="#64748b" text-anchor="middle" font-family="Arial, sans-serif">Next → a</text>
  <text x="482.5" y="242" font-size="10" fill="#64748b" text-anchor="middle" font-family="Arial, sans-serif">reference/pointer to the</text>
  <text x="482.5" y="258" font-size="10" fill="#64748b" text-anchor="middle" font-family="Arial, sans-serif">next node in the</text>
  <text x="482.5" y="274" font-size="10" fill="#64748b" text-anchor="middle" font-family="Arial, sans-serif">sequence; `nullptr` (or</text>
  <text x="482.5" y="290" font-size="10" fill="#64748b" text-anchor="middle" font-family="Arial, sans-serif">`None`) marks the end.</text>
</svg>